<svg width="20" height="20" viewBox="0 0 20 20" fill="none" xmlns="http://www.w3.org/2000/svg">
<rect width="20" height="20" rx="10" fill="white"/>
<path d="M19.6986 12.419C18.363 17.7762 12.937 21.0365 7.57919 19.7006C2.22361 18.365 -1.03667 12.9387 0.299485 7.58197C1.63447 2.22419 7.06044 -1.03634 12.4166 0.299234C17.7741 1.63481 21.0341 7.0617 19.6984 12.4191L19.6985 12.419H19.6986Z" fill="#F3BA2F"/>
<path fill-rule="evenodd" clip-rule="evenodd" d="M9.99967 6.34659L7.41023 8.93603L7.41029 8.93592L5.90367 7.42925L9.99967 3.33325L14.097 7.43048L12.5903 8.93715L9.99967 6.34659ZM4.83973 8.49299L3.33301 9.99992L4.83962 11.5063L6.34634 9.9996L4.83973 8.49299ZM7.41023 11.064L9.99967 13.6533L12.5903 11.0627L14.0978 12.5686L14.097 12.5694L9.99967 16.6666L5.90367 12.5706L5.90154 12.5685L7.41023 11.064ZM15.1597 8.49384L13.653 10.0006L15.1597 11.5072L16.6663 10.0005L15.1597 8.49384Z" fill="white"/>
<path d="M11.5285 9.99931H11.5291L10.0004 8.47046L8.87038 9.60011L8.74057 9.72998L8.47284 9.99777L8.4707 9.99985L8.47284 10.002L10.0004 11.5298L11.5292 10.0009L11.53 10.0001L11.5286 9.99931" fill="white"/>
</svg>
