<svg width="64" height="35" viewBox="0 0 64 35" fill="none" xmlns="http://www.w3.org/2000/svg">
<g filter="url(#filter0_d_397_5274)">
<rect x="4.5" y="2.5" width="55" height="26" rx="13" fill="#352F3E" stroke="#475264"/>
<g filter="url(#filter1_d_397_5274)">
<ellipse cx="17.5576" cy="15.4999" rx="9.43158" ry="9.3913" fill="#99C1E7"/>
<path d="M25.9891 15.4999C25.9891 20.1303 22.2182 23.8913 17.5576 23.8913C12.8969 23.8913 9.12598 20.1303 9.12598 15.4999C9.12598 10.8696 12.8969 7.10864 17.5576 7.10864C22.2182 7.10864 25.9891 10.8696 25.9891 15.4999Z" stroke="#BCD6EE" stroke-width="2"/>
</g>
<path d="M44.6735 8.4567C44.7773 8.4567 44.8803 8.4567 44.9824 8.4567C43.9727 9.39091 43.3237 10.6479 43.1482 12.0091C42.9727 13.3704 43.2818 14.7498 44.0218 15.9077C44.7617 17.0656 45.8858 17.9286 47.1985 18.3469C48.5113 18.7651 49.9297 18.7121 51.2073 18.197C50.7158 19.3745 49.9126 20.397 48.8833 21.1555C47.854 21.914 46.6372 22.3801 45.3628 22.504C44.0883 22.628 42.8039 22.4051 41.6467 21.8592C40.4895 21.3133 39.5028 20.4648 38.7918 19.4043C38.0809 18.3438 37.6724 17.111 37.61 15.8375C37.5475 14.5639 37.8334 13.2974 38.4372 12.1729C39.041 11.0485 39.94 10.1083 41.0383 9.45275C42.1366 8.79717 43.393 8.45075 44.6735 8.45044V8.4567Z" stroke="white" stroke-linecap="round" stroke-linejoin="round"/>
</g>
<defs>
<filter id="filter0_d_397_5274" x="0" y="0" width="64" height="35" filterUnits="userSpaceOnUse" color-interpolation-filters="sRGB">
<feFlood flood-opacity="0" result="BackgroundImageFix"/>
<feColorMatrix in="SourceAlpha" type="matrix" values="0 0 0 0 0 0 0 0 0 0 0 0 0 0 0 0 0 0 127 0" result="hardAlpha"/>
<feOffset dy="2"/>
<feGaussianBlur stdDeviation="2"/>
<feColorMatrix type="matrix" values="0 0 0 0 0.6 0 0 0 0 0.756863 0 0 0 0 0.905882 0 0 0 0.1 0"/>
<feBlend mode="normal" in2="BackgroundImageFix" result="effect1_dropShadow_397_5274"/>
<feBlend mode="normal" in="SourceGraphic" in2="effect1_dropShadow_397_5274" result="shape"/>
</filter>
<filter id="filter1_d_397_5274" x="4.12598" y="0.108643" width="28.8633" height="28.7827" filterUnits="userSpaceOnUse" color-interpolation-filters="sRGB">
<feFlood flood-opacity="0" result="BackgroundImageFix"/>
<feColorMatrix in="SourceAlpha" type="matrix" values="0 0 0 0 0 0 0 0 0 0 0 0 0 0 0 0 0 0 127 0" result="hardAlpha"/>
<feOffset dx="1" dy="-1"/>
<feGaussianBlur stdDeviation="2.5"/>
<feComposite in2="hardAlpha" operator="out"/>
<feColorMatrix type="matrix" values="0 0 0 0 1 0 0 0 0 1 0 0 0 0 1 0 0 0 0.16 0"/>
<feBlend mode="normal" in2="BackgroundImageFix" result="effect1_dropShadow_397_5274"/>
<feBlend mode="normal" in="SourceGraphic" in2="effect1_dropShadow_397_5274" result="shape"/>
</filter>
</defs>
</svg>
