<svg width="56" height="27" viewBox="0 0 56 27" fill="none" xmlns="http://www.w3.org/2000/svg">
<rect x="0.5" y="0.5" width="55" height="26" rx="13" fill="#FCFCFC" stroke="#EBECEE"/>
<path d="M8.39941 13.5001H9.2345M15.9152 6.01636V6.84788M22.5959 13.5001H23.431M15.9152 20.1522V20.9837M10.5706 8.17831L11.1552 8.76038M21.2598 8.17831L20.6752 8.76038M20.6752 18.2397L21.2598 18.8218M11.1552 18.2397L10.5706 18.8218M19.2556 13.5001C19.2556 15.337 17.76 16.8261 15.9152 16.8261C14.0704 16.8261 12.5749 15.337 12.5749 13.5001C12.5749 11.6631 14.0704 10.174 15.9152 10.174C17.76 10.174 19.2556 11.6631 19.2556 13.5001Z" stroke="#FBB955" stroke-linecap="round" stroke-linejoin="round"/>
<path d="M50.3739 13.4999C50.3739 17.8521 46.8289 21.3913 42.4423 21.3913C38.0558 21.3913 34.5107 17.8521 34.5107 13.4999C34.5107 9.14775 38.0558 5.60864 42.4423 5.60864C46.8289 5.60864 50.3739 9.14775 50.3739 13.4999Z" fill="#FBE8CB" stroke="#FBB955" stroke-width="3"/>
</svg>
