<svg width="20" height="20" viewBox="0 0 20 20" fill="none" xmlns="http://www.w3.org/2000/svg">
<rect width="20" height="20" rx="10" fill="white"/>
<circle cx="10" cy="10" r="10" fill="#EDF0F4"/>
<path d="M13.0008 7.99151C12.7875 7.86886 12.5134 7.86886 12.2697 7.99151L10.5639 9.00338L9.40633 9.6473L7.73096 10.6592C7.51773 10.7818 7.24358 10.7818 6.99989 10.6592L5.69006 9.86194C5.47683 9.73929 5.32452 9.49398 5.32452 9.21802V7.68488C5.32452 7.43958 5.44637 7.19428 5.69006 7.04097L6.99989 6.2744C7.21312 6.15175 7.48727 6.15175 7.73096 6.2744L9.0408 7.07163C9.25402 7.19428 9.40633 7.43958 9.40633 7.71555V8.72742L10.5639 8.05284V7.0103C10.5639 6.765 10.442 6.5197 10.1983 6.36639L7.76142 4.92524C7.54819 4.80259 7.27404 4.80259 7.03035 4.92524L4.53253 6.39705C4.28884 6.5197 4.16699 6.765 4.16699 7.0103V9.8926C4.16699 10.1379 4.28884 10.3832 4.53253 10.5365L6.99989 11.9777C7.21312 12.1003 7.48727 12.1003 7.73096 11.9777L9.40633 10.9965L10.5639 10.3219L12.2392 9.34067C12.4525 9.21802 12.7266 9.21802 12.9703 9.34067L14.2801 10.1072C14.4934 10.2299 14.6457 10.4752 14.6457 10.7512V12.2843C14.6457 12.5296 14.5238 12.7749 14.2801 12.9282L13.0008 13.6948C12.7875 13.8174 12.5134 13.8174 12.2697 13.6948L10.9599 12.9282C10.7466 12.8056 10.5943 12.5603 10.5943 12.2843V11.3031L9.43679 11.9777V12.9895C9.43679 13.2348 9.55864 13.4801 9.80233 13.6334L12.2697 15.0746C12.4829 15.1972 12.7571 15.1972 13.0008 15.0746L15.4681 13.6334C15.6814 13.5108 15.8337 13.2655 15.8337 12.9895V10.0766C15.8337 9.83127 15.7118 9.58597 15.4681 9.43266L13.0008 7.99151Z" fill="#8247E5"/>
</svg>
